<svg width="25" height="25" viewBox="0 0 37 36" fill="none" xmlns="http://www.w3.org/2000/svg">
<path d="M27.7406 0H9.25942C4.15366 0 0 4.22091 0 9.40933V26.5907C0 31.7791 4.15366 36 9.25942 36H27.7406C32.8463 36 37 31.7791 37 26.5907V9.40933C37 4.22091 32.8463 0 27.7406 0ZM3.26643 9.40933C3.26643 6.05174 5.95532 3.31932 9.25942 3.31932H27.7406C31.0447 3.31932 33.7336 6.05174 33.7336 9.40933V26.5907C33.7336 29.9483 31.0447 32.6807 27.7406 32.6807H9.25942C5.95532 32.6807 3.26643 29.9483 3.26643 26.5907V9.40933Z" fill="white"/>
<path d="M18.5 27C23.1857 27 27 22.9636 27 18C27 13.0364 23.1878 9 18.5 9C13.8122 9 10 13.0364 10 18C10 22.9636 13.8122 27 18.5 27ZM18.5 12.4155C21.4097 12.4155 23.7764 14.9213 23.7764 18.0022C23.7764 21.0831 21.4097 23.5889 18.5 23.5889C15.5903 23.5889 13.2236 21.0831 13.2236 18.0022C13.2236 14.9213 15.5903 12.4155 18.5 12.4155Z" fill="white"/>
<path d="M28.5 11C29.8774 11 31 9.87962 31 8.5C31 7.12038 29.8796 6 28.5 6C27.1204 6 26 7.12038 26 8.5C26 9.87962 27.1204 11 28.5 11Z" fill="white"/>
</svg>
