<svg width="25" height="25" viewBox="0 0 37 30" fill="none" xmlns="http://www.w3.org/2000/svg">
<path d="M0.972072 13.6753C1.05704 13.6337 1.14205 13.5941 1.2249 13.5567C2.66514 12.9032 4.12449 12.2913 5.58173 11.6794C5.66032 11.6794 5.79199 11.5899 5.86634 11.5608C5.97893 11.5129 6.09153 11.4671 6.20411 11.4192L6.85202 11.1466C7.28537 10.9655 7.71656 10.7845 8.1499 10.6034C9.01447 10.2413 9.87903 9.87913 10.7436 9.51491C12.4727 8.79064 14.204 8.06429 15.9332 7.34001C17.6623 6.61574 19.3935 5.88939 21.1227 5.16511C22.8518 4.44084 24.5831 3.71449 26.3122 2.99021C28.0413 2.26594 29.7726 1.53959 31.5018 0.815314C31.8863 0.652977 32.3026 0.411553 32.7147 0.340791C33.061 0.280435 33.3987 0.163886 33.7471 0.0993678C34.4077 -0.0234256 35.1363 -0.0733756 35.7693 0.195105C35.9881 0.288761 36.1899 0.419878 36.3578 0.584296C37.1607 1.36268 37.0481 2.64056 36.8782 3.7353C35.695 11.3651 34.5118 18.9971 33.3265 26.6269C33.165 27.6738 32.9441 28.8226 32.1008 29.4844C31.387 30.0443 30.3716 30.1067 29.4901 29.8695C28.6085 29.6301 27.831 29.1285 27.0684 28.6353C23.9054 26.5832 20.7403 24.5311 17.5773 22.479C16.8253 21.992 15.9884 21.3551 15.9969 20.4706C16.0012 19.9378 16.3261 19.4633 16.6575 19.0408C19.4063 15.5276 23.3723 13.1134 26.3228 9.76258C26.7392 9.29014 27.0663 8.43683 26.4949 8.16418C26.155 8.00185 25.7641 8.22246 25.454 8.43266C21.5539 11.0863 17.6559 13.7419 13.7558 16.3955C12.4834 17.2613 11.1494 18.1521 9.61566 18.3644C8.2434 18.5558 6.86265 18.1812 5.535 17.7983C4.42189 17.4777 3.31088 17.1489 2.20414 16.8097C1.61573 16.6307 1.00819 16.4371 0.553602 16.0313C0.099014 15.6254 -0.162233 14.9428 0.111795 14.4017C0.283859 14.0624 0.617371 13.8481 0.967872 13.6732L0.972072 13.6753Z" fill="#FEFFFC"/>
</svg>
